<?xml version="1.0" encoding="UTF-8" standalone="no"?>
<!-- Created with Inkscape (http://www.inkscape.org/) -->

<svg
   xmlns:dc="http://purl.org/dc/elements/1.1/"
   xmlns:cc="http://creativecommons.org/ns#"
   xmlns:rdf="http://www.w3.org/1999/02/22-rdf-syntax-ns#"
   xmlns:svg="http://www.w3.org/2000/svg"
   xmlns="http://www.w3.org/2000/svg"
   xmlns:sodipodi="http://sodipodi.sourceforge.net/DTD/sodipodi-0.dtd"
   xmlns:inkscape="http://www.inkscape.org/namespaces/inkscape"
   width="24.013483mm"
   height="22.844378mm"
   viewBox="0 0 24.013483 22.844378"
   version="1.1"
   id="svg8"
   inkscape:version="0.92.5 (2060ec1f9f, 2020-04-08)"
   sodipodi:docname="docutopia.svg">
  <defs
     id="defs2" />
  <sodipodi:namedview
     id="base"
     pagecolor="#ffffff"
     bordercolor="#666666"
     borderopacity="1.0"
     inkscape:pageopacity="0.0"
     inkscape:pageshadow="2"
     inkscape:zoom="1.979899"
     inkscape:cx="-252.52986"
     inkscape:cy="-120.56734"
     inkscape:document-units="mm"
     inkscape:current-layer="layer1"
     showgrid="false"
     inkscape:window-width="1920"
     inkscape:window-height="1129"
     inkscape:window-x="0"
     inkscape:window-y="0"
     inkscape:window-maximized="1" />
  <metadata
     id="metadata5">
    <rdf:RDF>
      <cc:Work
         rdf:about="">
        <dc:format>image/svg+xml</dc:format>
        <dc:type
           rdf:resource="http://purl.org/dc/dcmitype/StillImage" />
        <dc:title></dc:title>
      </cc:Work>
    </rdf:RDF>
  </metadata>
  <g
     inkscape:label="Ebene 1"
     inkscape:groupmode="layer"
     id="layer1"
     transform="translate(-119.57372,-117.71652)">
    <path
       style="fill:#000000;stroke-width:0.08466667"
       d="m 132.25848,140.40272 c -0.0481,-0.0899 -0.14703,-0.42014 -0.21976,-0.73378 -0.1532,-0.66056 -0.28189,-0.93181 -0.71911,-1.51569 -0.8544,-1.14103 -2.61699,-2.42108 -5.07557,-3.68606 -3.27652,-1.68583 -5.21505,-3.49842 -6.09694,-5.70085 -0.46913,-1.17159 -0.61122,-2.15356 -0.56517,-3.90576 0.0342,-1.30128 0.072,-1.6382 0.25864,-2.30541 0.70077,-2.50502 2.34576,-4.08796 4.87947,-4.69541 0.59026,-0.14151 0.89476,-0.16446 1.69334,-0.12764 1.79578,0.0828 3.09816,0.62984 4.31704,1.81333 l 0.7187,0.69784 0.46663,-0.45247 c 1.29579,-1.25648 2.80023,-1.83497 4.78463,-1.8398 1.26682,-0.003 2.14652,0.1493 3.06663,0.53119 2.65702,1.10282 3.97305,3.42367 3.80606,6.71203 -0.18607,3.66388 -2.0461,6.19934 -6.4485,8.79013 -1.6602,0.97702 -2.04405,1.23906 -2.55259,1.7426 -0.97102,0.96148 -1.5556,2.18177 -1.76717,3.68893 -0.0674,0.48036 -0.14651,0.93569 -0.17574,1.01186 -0.072,0.1877 -0.26366,0.17475 -0.37059,-0.025 z m 0.89989,-4.40208 c 0.21801,-0.57676 0.53634,-2.24932 0.53634,-2.81799 0,-0.30963 -0.0167,-0.33526 -0.1905,-0.29192 -0.55616,0.13868 -1.8712,0.23535 -2.49486,0.1834 -0.45174,-0.0376 -0.70131,-0.0282 -0.70131,0.0266 0,0.21436 0.91273,2.39906 1.82183,4.36073 l 0.22873,0.49354 0.29709,-0.7052 c 0.16339,-0.38787 0.3896,-0.94998 0.50268,-1.24915 z m -2.32682,-0.0994 c -0.31888,-0.71718 -0.70648,-1.66591 -0.86132,-2.1083 -0.15484,-0.44238 -0.32315,-0.84628 -0.37403,-0.89754 -0.0509,-0.0513 -0.45444,-0.21648 -0.89682,-0.36713 -1.08081,-0.36807 -2.30197,-1.01602 -3.08512,-1.63696 -1.30142,-1.03188 -2.46886,-2.82177 -2.85427,-4.37612 -0.24492,-0.98776 -0.19579,-2.13085 0.12137,-2.82362 0.27774,-0.60666 0.44866,-0.64482 0.35743,-0.0798 -0.21871,1.35455 -0.16992,2.13158 0.2015,3.20915 0.6422,1.86314 1.8478,3.23492 3.73509,4.24991 0.58204,0.31303 2.11464,0.88968 2.18296,0.82136 0.016,-0.016 -0.0107,-0.25204 -0.0593,-0.52463 -0.0486,-0.2726 -0.13047,-0.95283 -0.18198,-1.51163 -0.23356,-2.53393 0.41022,-5.96559 1.54863,-8.255 l 0.39996,-0.80433 -0.50182,-0.48098 c -1.32535,-1.27032 -2.80629,-1.93202 -4.32401,-1.93202 -2.19593,0 -4.36692,1.31016 -5.25714,3.1726 -0.55452,1.16015 -0.68747,1.82322 -0.68798,3.4314 -6.9e-4,2.14699 0.36057,3.52726 1.29169,4.93526 1.07732,1.62906 2.37156,2.64228 5.45164,4.26794 1.73477,0.91561 2.83645,1.6458 3.66488,2.42905 0.36492,0.34503 0.6736,0.61787 0.68597,0.60633 0.0124,-0.0115 -0.23843,-0.60776 -0.55731,-1.32495 z m 4.18993,-1.38863 c 0.42704,-0.2794 1.19258,-0.74844 1.7012,-1.04232 2.31496,-1.33753 4.30984,-3.22727 5.29019,-5.01135 0.62557,-1.13843 0.98007,-2.86006 0.87555,-4.25216 -0.20128,-2.68104 -1.46627,-4.44624 -3.73271,-5.2087 -0.64092,-0.21561 -0.76382,-0.22787 -2.286,-0.22787 -1.52019,0 -1.64592,0.0125 -2.286,0.22707 -0.37253,0.12489 -0.86783,0.34628 -1.10067,0.49198 -0.44878,0.28083 -1.13288,0.90379 -1.40404,1.27855 l -0.16295,0.2252 0.5033,0.96013 c 1.37565,2.62428 1.97937,5.16091 1.97658,8.30497 -7.6e-4,0.88466 0.0323,1.5875 0.0747,1.5875 0.0419,0 0.37562,-0.11548 0.74163,-0.25663 0.70958,-0.27364 1.72638,-0.85273 2.4194,-1.37789 0.64145,-0.48607 1.70773,-1.56189 2.12669,-2.14572 0.52721,-0.73466 1.10463,-1.99922 1.35597,-2.96961 0.19165,-0.73993 0.2103,-0.9473 0.17564,-1.95318 -0.0409,-1.18644 0.0235,-1.36333 0.26668,-0.73254 0.16758,0.43468 0.18322,2.26636 0.0249,2.91624 -0.19256,0.7905 -0.44079,1.45089 -0.83383,2.21839 -1.1061,2.15988 -3.30703,4.07895 -5.57138,4.85789 -0.37254,0.12815 -0.72496,0.26948 -0.78317,0.31406 -0.0596,0.0456 -0.10713,0.27088 -0.10879,0.51519 -0.002,0.23877 -0.058,0.73893 -0.12533,1.11147 -0.15012,0.83086 -0.15005,0.82832 -0.0199,0.74504 0.0582,-0.0372 0.45523,-0.29631 0.88227,-0.57571 z m -1.43763,-2.45468 c 0.2518,-0.0816 0.31922,-0.66485 0.25433,-2.20007 -0.0952,-2.25163 -0.41952,-4.02609 -1.04193,-5.70008 -0.35661,-0.9591 -1.12441,-2.55684 -1.2287,-2.55684 -0.10473,0 -0.5989,1.01756 -0.94571,1.94734 -0.29685,0.79581 -0.57937,1.80246 -0.74423,2.65175 -0.24801,1.27766 -0.23901,4.10419 0.0172,5.40814 0.0884,0.45013 0.1124,0.48475 0.35982,0.52019 0.39491,0.0566 3.11486,-9.6e-4 3.3292,-0.0704 z"
       id="path21"
       inkscape:connector-curvature="0" />
  </g>
</svg>
